<svg width="1368" height="119" viewBox="0 0 1368 119" fill="none" xmlns="http://www.w3.org/2000/svg">
<path fill-rule="evenodd" clip-rule="evenodd" d="M128 13.8991C128 6.37864 134.272 0.275047 142 0.275047C149.728 0.275047 156 6.37864 156 13.8991C156 21.4196 149.728 27.5232 142 27.5232C134.272 27.5232 128 21.4196 128 13.8991ZM146.2 8.44951C146.2 6.18791 144.324 4.36228 142 4.36228C139.676 4.36228 137.8 6.18791 137.8 8.44951C137.8 10.7111 139.676 12.5367 142 12.5367C144.324 12.5367 146.2 10.7111 146.2 8.44951ZM133.6 19.3215C135.406 21.9646 138.5 23.7085 142 23.7085C145.5 23.7085 148.594 21.9646 150.4 19.3215C150.358 16.6103 144.786 15.1253 142 15.1253C139.2 15.1253 133.642 16.6103 133.6 19.3215ZM0 0.999998H28V29H0V0.999998ZM0 50H1352V49H0V50ZM117 72H2V114H117V72ZM440.128 99H442.368V87.832H440.128V92.424H435.344V87.832H433.104V99H435.344V94.248H440.128V99ZM453.133 94.568C453.133 91.768 451.133 89.992 448.573 89.992C446.013 89.992 444.013 91.768 444.013 94.568C444.013 97.352 445.949 99.144 448.509 99.144C451.085 99.144 453.133 97.352 453.133 94.568ZM446.285 94.568C446.285 92.792 447.357 91.944 448.541 91.944C449.725 91.944 450.829 92.792 450.829 94.568C450.829 96.328 449.693 97.192 448.509 97.192C447.309 97.192 446.285 96.328 446.285 94.568ZM467.176 99H469.416V93.8C469.416 91.352 467.912 90.008 465.784 90.008C464.488 90.008 463.32 90.696 462.744 91.704C462.136 90.6 461 90.008 459.624 90.008C458.52 90.008 457.576 90.472 457.016 91.208V90.136H454.776V99H457.016V94.104C457.016 92.696 457.8 91.96 459.016 91.96C460.2 91.96 460.984 92.696 460.984 94.104V99H463.224V94.104C463.224 92.696 464.008 91.96 465.208 91.96C466.392 91.96 467.176 92.696 467.176 94.104V99ZM475.349 91.832C476.501 91.832 477.43 92.568 477.461 93.736H473.254C473.43 92.52 474.277 91.832 475.349 91.832ZM479.557 96.216H477.142C476.854 96.808 476.326 97.288 475.366 97.288C474.246 97.288 473.349 96.552 473.237 95.24H479.717C479.766 94.952 479.781 94.664 479.781 94.376C479.781 91.736 477.974 89.992 475.414 89.992C472.789 89.992 470.966 91.768 470.966 94.568C470.966 97.352 472.837 99.144 475.414 99.144C477.605 99.144 479.078 97.848 479.557 96.216ZM515.104 99V87.832H517.344V97.224H521.024V99H515.104ZM526.448 89.992C529.008 89.992 531.008 91.768 531.008 94.568C531.008 97.352 528.96 99.144 526.384 99.144C523.824 99.144 521.888 97.352 521.888 94.568C521.888 91.768 523.888 89.992 526.448 89.992ZM526.416 91.944C525.232 91.944 524.16 92.792 524.16 94.568C524.16 96.328 525.184 97.192 526.384 97.192C527.568 97.192 528.704 96.328 528.704 94.568C528.704 92.792 527.6 91.944 526.416 91.944ZM536.107 99.144C533.867 99.144 532.075 97.304 532.075 94.536C532.075 91.768 533.867 89.992 536.123 89.992C537.547 89.992 538.523 90.664 539.051 91.4V90.136H541.307V99H539.051V97.704C538.523 98.472 537.515 99.144 536.107 99.144ZM536.699 97.176C537.931 97.176 539.051 96.248 539.051 94.568C539.051 92.888 537.931 91.96 536.699 91.96C535.499 91.96 534.363 92.856 534.363 94.536C534.363 96.216 535.499 97.176 536.699 97.176ZM551.943 99H549.703V94.104C549.703 92.68 548.919 91.912 547.735 91.912C546.519 91.912 545.735 92.68 545.735 94.104V99H543.495V90.136H545.735V91.24C546.311 90.488 547.271 90.008 548.407 90.008C550.471 90.008 551.943 91.352 551.943 93.8V99ZM557.812 93.7625C559.214 94.1272 560.915 94.5694 560.953 96.472C560.953 97.992 559.625 99.144 557.465 99.144C555.241 99.144 553.689 97.848 553.593 96.2H555.849C555.929 96.872 556.553 97.384 557.449 97.384C558.329 97.384 558.809 96.984 558.809 96.472C558.809 95.8207 557.962 95.6076 556.965 95.3567C555.537 94.9974 553.801 94.5605 553.801 92.648C553.801 91.176 555.113 89.992 557.305 89.992C559.449 89.992 560.745 91.16 560.873 92.92H558.729C558.665 92.232 558.121 91.768 557.241 91.768C556.409 91.768 555.977 92.104 555.977 92.616C555.977 93.2854 556.82 93.5046 557.812 93.7625ZM603.688 99H606.056L602.04 87.816H599.432L595.416 99H597.768L598.504 96.872H602.952L603.688 99ZM599.112 95.08L600.728 90.408L602.344 95.08H599.112ZM609.797 91.432V87.16H607.557V99H609.797V97.736C610.341 98.504 611.333 99.144 612.725 99.144C614.997 99.144 616.773 97.304 616.773 94.536C616.773 91.768 614.997 89.992 612.725 89.992C611.381 89.992 610.341 90.616 609.797 91.432ZM614.485 94.536C614.485 96.216 613.349 97.176 612.133 97.176C610.933 97.176 609.797 96.248 609.797 94.568C609.797 92.888 610.933 91.96 612.133 91.96C613.349 91.96 614.485 92.856 614.485 94.536ZM626.961 94.568C626.961 91.768 624.961 89.992 622.401 89.992C619.841 89.992 617.841 91.768 617.841 94.568C617.841 97.352 619.777 99.144 622.337 99.144C624.913 99.144 626.961 97.352 626.961 94.568ZM620.113 94.568C620.113 92.792 621.185 91.944 622.369 91.944C623.553 91.944 624.657 92.792 624.657 94.568C624.657 96.328 623.521 97.192 622.337 97.192C621.137 97.192 620.113 96.328 620.113 94.568ZM636.972 90.136H634.716V95.016C634.716 96.44 633.948 97.208 632.732 97.208C631.548 97.208 630.764 96.44 630.764 95.016V90.136H628.524V95.336C628.524 97.768 630.012 99.112 632.076 99.112C633.18 99.112 634.156 98.632 634.716 97.88V99H636.972V90.136ZM639.534 96.248C639.534 98.28 640.67 99 642.366 99H643.774V97.112H642.734C642.03 97.112 641.79 96.856 641.79 96.264V91.976H643.774V90.136H641.79V87.944H639.534V90.136H638.478V91.976H639.534V96.248ZM657.566 90.136H655.31V95.016C655.31 96.44 654.542 97.208 653.326 97.208C652.142 97.208 651.358 96.44 651.358 95.016V90.136H649.118V95.336C649.118 97.768 650.606 99.112 652.67 99.112C653.774 99.112 654.75 98.632 655.31 97.88V99H657.566V90.136ZM666.656 96.472C666.618 94.5694 664.917 94.1272 663.515 93.7625C662.523 93.5046 661.68 93.2854 661.68 92.616C661.68 92.104 662.112 91.768 662.944 91.768C663.824 91.768 664.368 92.232 664.432 92.92H666.576C666.448 91.16 665.152 89.992 663.008 89.992C660.816 89.992 659.504 91.176 659.504 92.648C659.504 94.5605 661.24 94.9974 662.668 95.3567C663.665 95.6076 664.512 95.8207 664.512 96.472C664.512 96.984 664.032 97.384 663.152 97.384C662.256 97.384 661.632 96.872 661.552 96.2H659.296C659.392 97.848 660.944 99.144 663.168 99.144C665.328 99.144 666.656 97.992 666.656 96.472ZM705.451 92.4843C707.051 92.9652 708.912 93.5245 708.912 95.768C708.912 97.528 707.504 99.112 704.96 99.112C702.64 99.112 700.848 97.896 700.816 95.784H703.216C703.28 96.68 703.872 97.272 704.912 97.272C705.968 97.272 706.592 96.712 706.592 95.912C706.592 94.8594 705.499 94.5417 704.266 94.1837C702.669 93.7199 700.839 93.1883 700.848 90.904C700.848 88.888 702.48 87.672 704.784 87.672C707.072 87.672 708.64 88.84 708.784 90.856H706.32C706.272 90.12 705.68 89.544 704.72 89.528C703.84 89.496 703.184 89.928 703.184 90.84C703.184 91.8032 704.243 92.1215 705.451 92.4843ZM716.774 93.736C716.742 92.568 715.814 91.832 714.662 91.832C713.59 91.832 712.742 92.52 712.566 93.736H716.774ZM716.454 96.216H718.87C718.39 97.848 716.918 99.144 714.726 99.144C712.15 99.144 710.278 97.352 710.278 94.568C710.278 91.768 712.102 89.992 714.726 89.992C717.286 89.992 719.094 91.736 719.094 94.376C719.094 94.664 719.078 94.952 719.03 95.24H712.55C712.662 96.552 713.558 97.288 714.678 97.288C715.638 97.288 716.166 96.808 716.454 96.216ZM725.097 92.36C723.769 92.36 722.969 92.872 722.969 94.584V99H720.729V90.136H722.969V91.512C723.529 90.6 724.457 90.008 725.689 90.008V92.36H725.097ZM732.238 99H729.518L726.254 90.136H728.654L730.894 96.936L733.134 90.136H735.518L732.238 99ZM739.016 99H736.776V90.136H739.016V99ZM739.288 87.768C739.288 88.504 738.696 89.08 737.912 89.08C737.112 89.08 736.536 88.504 736.536 87.768C736.536 87.032 737.112 86.456 737.912 86.456C738.696 86.456 739.288 87.032 739.288 87.768ZM745.037 99.144C742.477 99.144 740.653 97.352 740.653 94.568C740.653 91.784 742.477 89.992 745.037 89.992C747.245 89.992 748.733 91.144 749.213 93.128H746.797C746.541 92.376 745.949 91.896 745.021 91.896C743.773 91.896 742.941 92.84 742.941 94.568C742.941 96.296 743.773 97.224 745.021 97.224C745.949 97.224 746.525 96.808 746.797 96.008H749.213C748.733 97.896 747.245 99.144 745.037 99.144ZM756.774 93.736C756.742 92.568 755.814 91.832 754.662 91.832C753.59 91.832 752.742 92.52 752.566 93.736H756.774ZM756.454 96.216H758.87C758.39 97.848 756.918 99.144 754.726 99.144C752.15 99.144 750.278 97.352 750.278 94.568C750.278 91.768 752.102 89.992 754.726 89.992C757.286 89.992 759.094 91.736 759.094 94.376C759.094 94.664 759.078 94.952 759.03 95.24H752.55C752.662 96.552 753.558 97.288 754.678 97.288C755.638 97.288 756.166 96.808 756.454 96.216ZM764.468 93.7625C765.871 94.1272 767.572 94.5694 767.609 96.472C767.609 97.992 766.281 99.144 764.121 99.144C761.897 99.144 760.345 97.848 760.249 96.2H762.505C762.585 96.872 763.209 97.384 764.105 97.384C764.985 97.384 765.465 96.984 765.465 96.472C765.465 95.8207 764.618 95.6076 763.621 95.3567C762.193 94.9974 760.457 94.5605 760.457 92.648C760.457 91.176 761.769 89.992 763.961 89.992C766.105 89.992 767.401 91.16 767.529 92.92H765.385C765.321 92.232 764.777 91.768 763.897 91.768C763.065 91.768 762.633 92.104 762.633 92.616C762.633 93.2854 763.476 93.5046 764.468 93.7625ZM804.344 92.904V89.656H806.12C807.384 89.656 807.944 90.264 807.944 91.288C807.944 92.28 807.384 92.904 806.12 92.904H804.344ZM810.248 91.288C810.248 89.352 808.904 87.832 806.216 87.832H802.104V99H804.344V94.712H806.216C809.096 94.712 810.248 92.984 810.248 91.288ZM811.262 94.536C811.262 97.304 813.054 99.144 815.294 99.144C816.702 99.144 817.71 98.472 818.238 97.704V99H820.494V90.136H818.238V91.4C817.71 90.664 816.734 89.992 815.31 89.992C813.054 89.992 811.262 91.768 811.262 94.536ZM818.238 94.568C818.238 96.248 817.118 97.176 815.886 97.176C814.686 97.176 813.55 96.216 813.55 94.536C813.55 92.856 814.686 91.96 815.886 91.96C817.118 91.96 818.238 92.888 818.238 94.568ZM822.106 94.536C822.106 97.304 823.898 99.144 826.154 99.144C827.546 99.144 828.554 98.456 829.082 97.688V99.064C829.082 100.712 828.122 101.416 826.89 101.416C825.77 101.416 824.938 100.888 824.714 100.088H822.49C822.714 102.12 824.458 103.368 826.954 103.368C829.866 103.368 831.338 101.464 831.338 99.064V90.136H829.082V91.4C828.554 90.632 827.546 89.992 826.154 89.992C823.898 89.992 822.106 91.768 822.106 94.536ZM829.082 94.568C829.082 96.248 827.962 97.176 826.73 97.176C825.53 97.176 824.394 96.216 824.394 94.536C824.394 92.856 825.53 91.96 826.73 91.96C827.962 91.96 829.082 92.888 829.082 94.568ZM837.334 91.832C838.486 91.832 839.414 92.568 839.446 93.736H835.238C835.414 92.52 836.262 91.832 837.334 91.832ZM841.542 96.216H839.126C838.838 96.808 838.31 97.288 837.35 97.288C836.23 97.288 835.334 96.552 835.222 95.24H841.702C841.75 94.952 841.766 94.664 841.766 94.376C841.766 91.736 839.958 89.992 837.398 89.992C834.774 89.992 832.95 91.768 832.95 94.568C832.95 97.352 834.822 99.144 837.398 99.144C839.59 99.144 841.062 97.848 841.542 96.216ZM850.281 96.472C850.243 94.5694 848.542 94.1272 847.14 93.7625C846.148 93.5046 845.305 93.2854 845.305 92.616C845.305 92.104 845.737 91.768 846.569 91.768C847.449 91.768 847.993 92.232 848.057 92.92H850.201C850.073 91.16 848.777 89.992 846.633 89.992C844.441 89.992 843.129 91.176 843.129 92.648C843.129 94.5605 844.865 94.9974 846.293 95.3567C847.29 95.6076 848.137 95.8207 848.137 96.472C848.137 96.984 847.657 97.384 846.777 97.384C845.881 97.384 845.257 96.872 845.177 96.2H842.921C843.017 97.848 844.569 99.144 846.793 99.144C848.953 99.144 850.281 97.992 850.281 96.472ZM890.6 97.176C891.688 97.176 892.328 96.648 892.328 95.704C892.328 94.744 891.64 94.168 890.552 94.168H888.344V97.176H890.6ZM890.392 92.44C891.448 92.44 892.056 91.96 892.056 91.048C892.056 90.152 891.448 89.64 890.392 89.64H888.344V92.44H890.392ZM892.44 93.272C893.704 93.496 894.6 94.664 894.6 95.976C894.6 97.752 893.24 99 890.92 99H886.104V87.832H890.712C893.048 87.832 894.344 89.048 894.344 90.712C894.344 92.072 893.528 92.92 892.44 93.272ZM898.625 99H896.385V87.16H898.625V99ZM904.838 89.992C907.398 89.992 909.398 91.768 909.398 94.568C909.398 97.352 907.35 99.144 904.774 99.144C902.214 99.144 900.278 97.352 900.278 94.568C900.278 91.768 902.278 89.992 904.838 89.992ZM904.806 91.944C903.622 91.944 902.55 92.792 902.55 94.568C902.55 96.328 903.574 97.192 904.774 97.192C905.958 97.192 907.094 96.328 907.094 94.568C907.094 92.792 905.99 91.944 904.806 91.944ZM914.513 99.144C912.258 99.144 910.466 97.304 910.466 94.536C910.466 91.768 912.258 89.992 914.513 89.992C915.906 89.992 916.914 90.632 917.442 91.4V90.136H919.698V99.064C919.698 101.464 918.226 103.368 915.313 103.368C912.818 103.368 911.073 102.12 910.849 100.088H913.073C913.297 100.888 914.13 101.416 915.25 101.416C916.482 101.416 917.442 100.712 917.442 99.064V97.688C916.914 98.456 915.906 99.144 914.513 99.144ZM915.089 97.176C916.321 97.176 917.442 96.248 917.442 94.568C917.442 92.888 916.321 91.96 915.089 91.96C913.89 91.96 912.753 92.856 912.753 94.536C912.753 96.216 913.89 97.176 915.089 97.176ZM1183 94.183C1183 80.8271 1193.83 70 1207.18 70H1343.82C1357.17 70 1368 80.8271 1368 94.183C1368 107.539 1357.17 118.366 1343.82 118.366H1207.18C1193.83 118.366 1183 107.539 1183 94.183ZM40.568 17.864C40.568 19.08 39.704 19.8 38.264 19.8H35.688V15.864H38.216C39.64 15.864 40.568 16.632 40.568 17.864ZM40.28 12.856C40.28 13.992 39.496 14.664 38.136 14.664H35.688V11.048H38.104C39.528 11.048 40.28 11.752 40.28 12.856ZM42.024 18.008C42.024 16.632 41.032 15.464 39.816 15.256C40.888 14.904 41.768 14.088 41.768 12.68C41.768 11.128 40.584 9.848 38.232 9.848H34.232V21H38.392C40.696 21 42.024 19.688 42.024 18.008ZM51.8205 12.232H50.3645V17.048C50.3645 18.936 49.3565 19.864 47.8525 19.864C46.3805 19.864 45.4045 18.952 45.4045 17.176V12.232H43.9645V17.368C43.9645 19.88 45.5485 21.128 47.5645 21.128C48.7325 21.128 49.8045 20.616 50.3645 19.704V21H51.8205V12.232ZM60.5829 18.616C60.5476 16.8898 58.9902 16.458 57.597 16.0717C56.4592 15.7562 55.4309 15.4711 55.4309 14.536C55.4309 13.832 56.0709 13.32 57.1429 13.32C58.3109 13.32 58.9829 13.96 59.0469 14.84H60.5029C60.4069 13.128 59.1269 12.088 57.1909 12.088C55.2389 12.088 53.9749 13.192 53.9749 14.536C53.9749 16.3766 55.6234 16.818 57.0611 17.203C58.173 17.5008 59.1589 17.7648 59.1589 18.616C59.1589 19.336 58.5189 19.912 57.3669 19.912C56.1349 19.912 55.3829 19.272 55.3029 18.424H53.7989C53.8949 20.024 55.3349 21.144 57.3829 21.144C59.3189 21.144 60.5829 20.056 60.5829 18.616ZM62.6382 21H64.0943V12.232H62.6382V21ZM63.3903 10.808C63.9183 10.808 64.3503 10.376 64.3503 9.816C64.3503 9.256 63.9183 8.824 63.3903 8.824C62.8302 8.824 62.3983 9.256 62.3983 9.816C62.3983 10.376 62.8302 10.808 63.3903 10.808ZM72.9918 21H74.4317V15.832C74.4317 13.32 72.8798 12.072 70.8477 12.072C69.6637 12.072 68.6077 12.568 68.0318 13.48V12.232H66.5758V21H68.0318V16.152C68.0318 14.264 69.0557 13.336 70.5437 13.336C72.0157 13.336 72.9918 14.248 72.9918 16.04V21ZM80.5381 13.32C82.0421 13.32 83.3221 14.264 83.3061 15.976H77.7701C77.9301 14.264 79.1141 13.32 80.5381 13.32ZM84.6341 18.296H83.0661C82.7461 19.24 81.9141 19.912 80.6021 19.912C79.1141 19.912 77.8661 18.936 77.7541 17.16H84.7621C84.7941 16.856 84.8101 16.6 84.8101 16.28C84.8101 13.88 83.1461 12.088 80.6021 12.088C78.0421 12.088 76.2661 13.832 76.2661 16.6C76.2661 19.384 78.1061 21.144 80.6021 21.144C82.7781 21.144 84.1861 19.896 84.6341 18.296ZM93.036 18.616C93.0008 16.8898 91.4433 16.458 90.0502 16.0717C88.9123 15.7562 87.884 15.4711 87.884 14.536C87.884 13.832 88.524 13.32 89.596 13.32C90.764 13.32 91.436 13.96 91.5 14.84H92.956C92.86 13.128 91.58 12.088 89.644 12.088C87.692 12.088 86.428 13.192 86.428 14.536C86.428 16.3766 88.0765 16.818 89.5143 17.203C90.6261 17.5008 91.612 17.7648 91.612 18.616C91.612 19.336 90.972 19.912 89.82 19.912C88.588 19.912 87.836 19.272 87.756 18.424H86.252C86.348 20.024 87.788 21.144 89.836 21.144C91.772 21.144 93.036 20.056 93.036 18.616ZM101.395 18.616C101.36 16.8898 99.8027 16.458 98.4095 16.0717C97.2717 15.7562 96.2434 15.4711 96.2434 14.536C96.2434 13.832 96.8834 13.32 97.9554 13.32C99.1234 13.32 99.7954 13.96 99.8594 14.84H101.315C101.219 13.128 99.9394 12.088 98.0034 12.088C96.0514 12.088 94.7874 13.192 94.7874 14.536C94.7874 16.3766 96.4359 16.818 97.8736 17.203C98.9855 17.5008 99.9714 17.7648 99.9714 18.616C99.9714 19.336 99.3314 19.912 98.1794 19.912C96.9474 19.912 96.1954 19.272 96.1154 18.424H94.6114C94.7074 20.024 96.1474 21.144 98.1954 21.144C100.131 21.144 101.395 20.056 101.395 18.616ZM163.688 15.144V11.048H165.832C167.496 11.048 168.2 11.816 168.2 13.112C168.2 14.36 167.496 15.144 165.832 15.144H163.688ZM169.688 13.112C169.688 11.288 168.456 9.848 165.832 9.848H162.232V21H163.688V16.344H165.832C168.6 16.344 169.688 14.808 169.688 13.112ZM175.226 13.32C176.73 13.32 178.01 14.264 177.994 15.976H172.458C172.618 14.264 173.802 13.32 175.226 13.32ZM179.322 18.296H177.754C177.434 19.24 176.602 19.912 175.29 19.912C173.802 19.912 172.554 18.936 172.442 17.16H179.45C179.482 16.856 179.498 16.6 179.498 16.28C179.498 13.88 177.834 12.088 175.29 12.088C172.73 12.088 170.954 13.832 170.954 16.6C170.954 19.384 172.794 21.144 175.29 21.144C177.466 21.144 178.874 19.896 179.322 18.296ZM182.876 16.232C182.876 14.2 183.932 13.576 185.324 13.576H185.708V12.072C184.316 12.072 183.372 12.68 182.876 13.656V12.232H181.419V21H182.876V16.232ZM193.692 18.616C193.657 16.8898 192.1 16.458 190.706 16.0717C189.569 15.7562 188.54 15.4711 188.54 14.536C188.54 13.832 189.18 13.32 190.252 13.32C191.42 13.32 192.092 13.96 192.156 14.84H193.612C193.516 13.128 192.236 12.088 190.3 12.088C188.348 12.088 187.084 13.192 187.084 14.536C187.084 16.3766 188.733 16.818 190.171 17.203C191.282 17.5008 192.268 17.7648 192.268 18.616C192.268 19.336 191.628 19.912 190.476 19.912C189.244 19.912 188.492 19.272 188.412 18.424H186.908C187.004 20.024 188.444 21.144 190.492 21.144C192.428 21.144 193.692 20.056 193.692 18.616ZM204.068 16.6C204.068 13.832 202.132 12.088 199.636 12.088C197.156 12.088 195.204 13.832 195.204 16.6C195.204 19.384 197.092 21.144 199.572 21.144C202.068 21.144 204.068 19.384 204.068 16.6ZM196.692 16.6C196.692 14.392 198.084 13.352 199.62 13.352C201.124 13.352 202.58 14.392 202.58 16.6C202.58 18.824 201.092 19.864 199.572 19.864C198.052 19.864 196.692 18.824 196.692 16.6ZM212.398 21H213.838V15.832C213.838 13.32 212.286 12.072 210.254 12.072C209.07 12.072 208.014 12.568 207.438 13.48V12.232H205.982V21H207.438V16.152C207.438 14.264 208.462 13.336 209.95 13.336C211.422 13.336 212.398 14.248 212.398 16.04V21ZM215.672 16.584C215.672 19.304 217.48 21.144 219.816 21.144C221.432 21.144 222.568 20.312 223.096 19.368V21H224.568V12.232H223.096V13.832C222.584 12.92 221.464 12.088 219.832 12.088C217.48 12.088 215.672 13.848 215.672 16.584ZM223.096 16.6C223.096 18.664 221.72 19.864 220.12 19.864C218.52 19.864 217.16 18.648 217.16 16.584C217.16 14.52 218.52 13.352 220.12 13.352C221.72 13.352 223.096 14.568 223.096 16.6ZM227.029 21H228.485V9.16H227.029V21ZM1046 0.999998H1018V29H1046V0.999998ZM1054.62 21H1053.14V10.76H1051.61V9.432H1054.62V21ZM1063.44 15.752H1057.05V14.52H1063.44V15.752ZM1065.9 17.88C1065.9 16.424 1066.75 15.368 1068.04 14.984C1066.86 14.52 1066.19 13.624 1066.19 12.328C1066.19 10.632 1067.47 9.256 1069.98 9.256C1072.49 9.256 1073.79 10.648 1073.79 12.328C1073.79 13.576 1073.07 14.536 1071.93 14.984C1073.24 15.384 1074.09 16.44 1074.09 17.88C1074.09 19.976 1072.43 21.32 1069.98 21.32C1067.55 21.32 1065.9 19.976 1065.9 17.88ZM1067.59 12.52C1067.59 13.72 1068.57 14.504 1069.98 14.504C1071.4 14.504 1072.38 13.704 1072.38 12.504C1072.38 11.176 1071.43 10.472 1069.98 10.472C1068.55 10.472 1067.59 11.16 1067.59 12.52ZM1072.65 17.832C1072.65 16.344 1071.5 15.624 1069.98 15.624C1068.49 15.624 1067.29 16.296 1067.29 17.832C1067.29 19.192 1068.33 20.104 1069.98 20.104C1071.63 20.104 1072.65 19.176 1072.65 17.832ZM1080.06 21C1076.86 21 1076.02 18.456 1076.02 15.096C1076.02 11.784 1076.86 9.256 1080.06 9.256C1083.24 9.256 1084.07 11.784 1084.07 15.096C1084.07 18.456 1083.24 21 1080.06 21ZM1080.06 19.672C1082.33 19.672 1082.63 17.592 1082.63 15.096C1082.63 12.696 1082.33 10.584 1080.06 10.584C1077.77 10.584 1077.46 12.696 1077.46 15.096C1077.46 17.592 1077.77 19.672 1080.06 19.672ZM1090.1 21C1086.9 21 1086.07 18.456 1086.07 15.096C1086.07 11.784 1086.9 9.256 1090.1 9.256C1093.29 9.256 1094.12 11.784 1094.12 15.096C1094.12 18.456 1093.29 21 1090.1 21ZM1090.1 19.672C1092.37 19.672 1092.68 17.592 1092.68 15.096C1092.68 12.696 1092.37 10.584 1090.1 10.584C1087.81 10.584 1087.51 12.696 1087.51 15.096C1087.51 17.592 1087.81 19.672 1090.1 19.672ZM1102.44 15.752H1096.05V14.52H1102.44V15.752ZM1106.32 12.344H1104.9C1105.04 10.36 1106.55 9.208 1108.69 9.208C1110.95 9.208 1112.18 10.52 1112.18 12.184C1112.18 13.512 1111.35 14.552 1110.13 14.824V14.904C1111.47 15.224 1112.39 16.216 1112.39 17.88C1112.39 19.672 1111.14 21.08 1108.72 21.08C1106.53 21.08 1104.9 19.912 1104.72 17.672H1106.13C1106.27 18.904 1107.17 19.848 1108.71 19.848C1110.26 19.848 1110.99 18.936 1110.99 17.752C1110.99 16.12 1109.86 15.496 1107.78 15.496H1107.41V14.28H1107.79C1109.73 14.264 1110.77 13.672 1110.77 12.328C1110.77 11.224 1110.03 10.456 1108.64 10.456C1107.28 10.456 1106.47 11.224 1106.32 12.344ZM1114.77 15.944V9.416H1121.73V10.696H1116.11V14.344C1116.59 13.688 1117.62 13.176 1118.75 13.176C1121.57 13.176 1122.46 15.208 1122.46 17C1122.46 19.24 1121.22 21.032 1118.51 21.032C1116.21 21.032 1114.82 19.736 1114.53 17.864H1115.95C1116.22 19.08 1117.17 19.8 1118.53 19.8C1120.29 19.8 1121.07 18.616 1121.07 17.032C1121.07 15.384 1120.22 14.424 1118.54 14.424C1117.38 14.424 1116.53 15.032 1116.14 15.944H1114.77ZM1128.67 9.192C1130.88 9.192 1132 10.568 1132.19 12.184H1130.85C1130.62 11.064 1129.97 10.408 1128.65 10.408C1126.81 10.408 1125.82 11.672 1125.84 15.112C1126.33 13.976 1127.6 13.336 1128.97 13.336C1131.13 13.336 1132.59 14.76 1132.59 17.192C1132.59 19.304 1131.34 21.032 1128.81 21.032C1125.39 21.032 1124.57 18.568 1124.57 15.064C1124.57 11.432 1125.74 9.192 1128.67 9.192ZM1131.18 17.24C1131.18 15.608 1130.33 14.568 1128.67 14.568C1127.34 14.568 1126.01 15.352 1126.01 17.08C1126.01 18.616 1126.91 19.816 1128.73 19.816C1130.24 19.816 1131.18 18.808 1131.18 17.24ZM1140.87 15.752H1134.49V14.52H1140.87V15.752ZM1147.64 9.192C1149.85 9.192 1150.97 10.568 1151.16 12.184H1149.81C1149.59 11.064 1148.94 10.408 1147.62 10.408C1145.78 10.408 1144.79 11.672 1144.81 15.112C1145.3 13.976 1146.57 13.336 1147.94 13.336C1150.1 13.336 1151.56 14.76 1151.56 17.192C1151.56 19.304 1150.31 21.032 1147.78 21.032C1144.36 21.032 1143.54 18.568 1143.54 15.064C1143.54 11.432 1144.71 9.192 1147.64 9.192ZM1150.15 17.24C1150.15 15.608 1149.3 14.568 1147.64 14.568C1146.31 14.568 1144.98 15.352 1144.98 17.08C1144.98 18.616 1145.88 19.816 1147.7 19.816C1149.21 19.816 1150.15 18.808 1150.15 17.24ZM1153.94 15.944V9.416H1160.9V10.696H1155.28V14.344C1155.76 13.688 1156.79 13.176 1157.92 13.176C1160.74 13.176 1161.64 15.208 1161.64 17C1161.64 19.24 1160.39 21.032 1157.68 21.032C1155.38 21.032 1153.99 19.736 1153.7 17.864H1155.12C1155.4 19.08 1156.34 19.8 1157.7 19.8C1159.46 19.8 1160.24 18.616 1160.24 17.032C1160.24 15.384 1159.4 14.424 1157.72 14.424C1156.55 14.424 1155.7 15.032 1155.32 15.944H1153.94ZM1171.09 20.872H1163.39V19.832L1163.45 19.7854C1166.47 17.3547 1169.31 15.065 1169.31 12.712C1169.31 11.432 1168.75 10.472 1167.19 10.472C1165.68 10.472 1164.91 11.512 1164.85 12.968H1163.44C1163.54 10.504 1165.09 9.224 1167.17 9.224C1169.35 9.224 1170.75 10.504 1170.75 12.648C1170.75 15.4544 1167.81 17.8505 1165.75 19.5256L1165.59 19.656H1171.09V20.872ZM1180.29 20.872H1172.6V19.832L1172.66 19.7854C1175.67 17.3547 1178.52 15.065 1178.52 12.712C1178.52 11.432 1177.96 10.472 1176.39 10.472C1174.89 10.472 1174.12 11.512 1174.05 12.968H1172.65C1172.74 10.504 1174.29 9.224 1176.37 9.224C1178.55 9.224 1179.96 10.504 1179.96 12.648C1179.96 15.4544 1177.01 17.8505 1174.95 19.5256L1174.79 19.656H1180.29V20.872ZM1241.77 21.112C1241.03 21.112 1240.37 20.984 1239.78 20.728C1239.21 20.4613 1238.75 20.0987 1238.42 19.64C1238.09 19.1707 1237.92 18.632 1237.91 18.024H1239.46C1239.52 18.5467 1239.73 18.9893 1240.1 19.352C1240.49 19.704 1241.04 19.88 1241.77 19.88C1242.46 19.88 1243.01 19.7093 1243.4 19.368C1243.81 19.016 1244.01 18.568 1244.01 18.024C1244.01 17.5973 1243.89 17.2507 1243.66 16.984C1243.42 16.7173 1243.13 16.5147 1242.78 16.376C1242.42 16.2373 1241.95 16.088 1241.35 15.928C1240.62 15.736 1240.02 15.544 1239.58 15.352C1239.14 15.16 1238.76 14.8613 1238.44 14.456C1238.13 14.04 1237.98 13.4853 1237.98 12.792C1237.98 12.184 1238.13 11.6453 1238.44 11.176C1238.75 10.7067 1239.18 10.344 1239.74 10.088C1240.3 9.832 1240.95 9.704 1241.67 9.704C1242.72 9.704 1243.57 9.96533 1244.23 10.488C1244.9 11.0107 1245.28 11.704 1245.37 12.568H1243.77C1243.71 12.1413 1243.49 11.768 1243.1 11.448C1242.7 11.1173 1242.18 10.952 1241.53 10.952C1240.92 10.952 1240.42 11.112 1240.04 11.432C1239.66 11.7413 1239.46 12.1787 1239.46 12.744C1239.46 13.1493 1239.58 13.48 1239.8 13.736C1240.03 13.992 1240.32 14.1893 1240.65 14.328C1240.99 14.456 1241.46 14.6053 1242.07 14.776C1242.81 14.9787 1243.4 15.1813 1243.85 15.384C1244.3 15.576 1244.68 15.88 1245 16.296C1245.32 16.7013 1245.48 17.256 1245.48 17.96C1245.48 18.504 1245.34 19.016 1245.05 19.496C1244.76 19.976 1244.33 20.3653 1243.77 20.664C1243.2 20.9627 1242.54 21.112 1241.77 21.112ZM1248.37 10.808C1248.1 10.808 1247.86 10.712 1247.67 10.52C1247.48 10.328 1247.38 10.0933 1247.38 9.816C1247.38 9.53866 1247.48 9.304 1247.67 9.112C1247.86 8.92 1248.1 8.824 1248.37 8.824C1248.64 8.824 1248.87 8.92 1249.05 9.112C1249.24 9.304 1249.33 9.53866 1249.33 9.816C1249.33 10.0933 1249.24 10.328 1249.05 10.52C1248.87 10.712 1248.64 10.808 1248.37 10.808ZM1249.08 12.232V21H1247.62V12.232H1249.08ZM1255.18 12.088C1255.93 12.088 1256.59 12.2533 1257.16 12.584C1257.74 12.9147 1258.16 13.3307 1258.44 13.832V12.232H1259.91V21.192C1259.91 21.992 1259.74 22.7013 1259.4 23.32C1259.06 23.9493 1258.57 24.44 1257.93 24.792C1257.3 25.144 1256.56 25.32 1255.72 25.32C1254.57 25.32 1253.61 25.048 1252.84 24.504C1252.07 23.96 1251.62 23.2187 1251.48 22.28H1252.92C1253.08 22.8133 1253.41 23.24 1253.91 23.56C1254.41 23.8907 1255.02 24.056 1255.72 24.056C1256.52 24.056 1257.17 23.8053 1257.67 23.304C1258.18 22.8027 1258.44 22.0987 1258.44 21.192V19.352C1258.15 19.864 1257.73 20.2907 1257.16 20.632C1256.59 20.9733 1255.93 21.144 1255.18 21.144C1254.4 21.144 1253.69 20.952 1253.05 20.568C1252.42 20.184 1251.92 19.6453 1251.56 18.952C1251.2 18.2587 1251.02 17.4693 1251.02 16.584C1251.02 15.688 1251.2 14.904 1251.56 14.232C1251.92 13.5493 1252.42 13.0213 1253.05 12.648C1253.69 12.2747 1254.4 12.088 1255.18 12.088ZM1258.44 16.6C1258.44 15.9387 1258.31 15.3627 1258.04 14.872C1257.77 14.3813 1257.41 14.008 1256.95 13.752C1256.5 13.4853 1256.01 13.352 1255.46 13.352C1254.92 13.352 1254.42 13.48 1253.98 13.736C1253.53 13.992 1253.17 14.3653 1252.9 14.856C1252.64 15.3467 1252.5 15.9227 1252.5 16.584C1252.5 17.256 1252.64 17.8427 1252.9 18.344C1253.17 18.8347 1253.53 19.2133 1253.98 19.48C1254.42 19.736 1254.92 19.864 1255.46 19.864C1256.01 19.864 1256.5 19.736 1256.95 19.48C1257.41 19.2133 1257.77 18.8347 1258.04 18.344C1258.31 17.8427 1258.44 17.2613 1258.44 16.6ZM1266.64 12.072C1267.71 12.072 1268.58 12.3973 1269.24 13.048C1269.9 13.688 1270.23 14.616 1270.23 15.832V21H1268.79V16.04C1268.79 15.1653 1268.57 14.4987 1268.13 14.04C1267.7 13.5707 1267.1 13.336 1266.34 13.336C1265.57 13.336 1264.96 13.576 1264.5 14.056C1264.05 14.536 1263.83 15.2347 1263.83 16.152V21H1262.37V12.232H1263.83V13.48C1264.12 13.032 1264.51 12.6853 1265 12.44C1265.5 12.1947 1266.05 12.072 1266.64 12.072ZM1284.65 12.232V21H1283.19V19.704C1282.92 20.152 1282.53 20.504 1282.02 20.76C1281.53 21.0053 1280.99 21.128 1280.39 21.128C1279.71 21.128 1279.1 20.9893 1278.55 20.712C1278.01 20.424 1277.58 19.9973 1277.26 19.432C1276.95 18.8667 1276.79 18.1787 1276.79 17.368V12.232H1278.23V17.176C1278.23 18.04 1278.45 18.7067 1278.89 19.176C1279.33 19.6347 1279.92 19.864 1280.68 19.864C1281.46 19.864 1282.07 19.624 1282.52 19.144C1282.97 18.664 1283.19 17.9653 1283.19 17.048V12.232H1284.65ZM1288.56 13.848C1288.85 13.3467 1289.28 12.9307 1289.84 12.6C1290.42 12.2587 1291.09 12.088 1291.84 12.088C1292.62 12.088 1293.33 12.2747 1293.95 12.648C1294.59 13.0213 1295.1 13.5493 1295.46 14.232C1295.82 14.904 1296 15.688 1296 16.584C1296 17.4693 1295.82 18.2587 1295.46 18.952C1295.1 19.6453 1294.59 20.184 1293.95 20.568C1293.33 20.952 1292.62 21.144 1291.84 21.144C1291.1 21.144 1290.44 20.9787 1289.86 20.648C1289.29 20.3067 1288.86 19.8853 1288.56 19.384V25.16H1287.11V12.232H1288.56V13.848ZM1294.52 16.584C1294.52 15.9227 1294.38 15.3467 1294.11 14.856C1293.85 14.3653 1293.49 13.992 1293.03 13.736C1292.58 13.48 1292.08 13.352 1291.54 13.352C1291.01 13.352 1290.51 13.4853 1290.05 13.752C1289.6 14.008 1289.24 14.3867 1288.96 14.888C1288.7 15.3787 1288.56 15.9493 1288.56 16.6C1288.56 17.2613 1288.7 17.8427 1288.96 18.344C1289.24 18.8347 1289.6 19.2133 1290.05 19.48C1290.51 19.736 1291.01 19.864 1291.54 19.864C1292.08 19.864 1292.58 19.736 1293.03 19.48C1293.49 19.2133 1293.85 18.8347 1294.11 18.344C1294.38 17.8427 1294.52 17.256 1294.52 16.584ZM1298.98 23.72H1297.54L1301.9 5.928H1303.36L1298.98 23.72ZM1306.98 19.816H1310.89V21H1305.53V9.848H1306.98V19.816ZM1316.26 21.144C1315.44 21.144 1314.69 20.9573 1314.02 20.584C1313.36 20.2107 1312.84 19.6827 1312.45 19C1312.08 18.3067 1311.89 17.5067 1311.89 16.6C1311.89 15.704 1312.08 14.9147 1312.47 14.232C1312.86 13.5387 1313.4 13.0107 1314.07 12.648C1314.74 12.2747 1315.49 12.088 1316.32 12.088C1317.16 12.088 1317.91 12.2747 1318.58 12.648C1319.25 13.0107 1319.78 13.5333 1320.16 14.216C1320.56 14.8987 1320.76 15.6933 1320.76 16.6C1320.76 17.5067 1320.55 18.3067 1320.15 19C1319.75 19.6827 1319.21 20.2107 1318.53 20.584C1317.85 20.9573 1317.09 21.144 1316.26 21.144ZM1316.26 19.864C1316.78 19.864 1317.27 19.7413 1317.73 19.496C1318.19 19.2507 1318.56 18.8827 1318.84 18.392C1319.12 17.9013 1319.27 17.304 1319.27 16.6C1319.27 15.896 1319.13 15.2987 1318.85 14.808C1318.57 14.3173 1318.21 13.9547 1317.76 13.72C1317.32 13.4747 1316.83 13.352 1316.31 13.352C1315.77 13.352 1315.28 13.4747 1314.84 13.72C1314.4 13.9547 1314.05 14.3173 1313.78 14.808C1313.51 15.2987 1313.38 15.896 1313.38 16.6C1313.38 17.3147 1313.51 17.9173 1313.76 18.408C1314.03 18.8987 1314.38 19.2667 1314.82 19.512C1315.26 19.7467 1315.74 19.864 1316.26 19.864ZM1326.29 12.088C1327.04 12.088 1327.7 12.2533 1328.27 12.584C1328.85 12.9147 1329.27 13.3307 1329.55 13.832V12.232H1331.02V21.192C1331.02 21.992 1330.85 22.7013 1330.51 23.32C1330.17 23.9493 1329.68 24.44 1329.04 24.792C1328.41 25.144 1327.67 25.32 1326.83 25.32C1325.68 25.32 1324.72 25.048 1323.95 24.504C1323.18 23.96 1322.73 23.2187 1322.59 22.28H1324.03C1324.19 22.8133 1324.52 23.24 1325.02 23.56C1325.52 23.8907 1326.13 24.056 1326.83 24.056C1327.63 24.056 1328.28 23.8053 1328.78 23.304C1329.29 22.8027 1329.55 22.0987 1329.55 21.192V19.352C1329.26 19.864 1328.83 20.2907 1328.27 20.632C1327.7 20.9733 1327.04 21.144 1326.29 21.144C1325.51 21.144 1324.8 20.952 1324.16 20.568C1323.53 20.184 1323.03 19.6453 1322.67 18.952C1322.31 18.2587 1322.13 17.4693 1322.13 16.584C1322.13 15.688 1322.31 14.904 1322.67 14.232C1323.03 13.5493 1323.53 13.0213 1324.16 12.648C1324.8 12.2747 1325.51 12.088 1326.29 12.088ZM1329.55 16.6C1329.55 15.9387 1329.42 15.3627 1329.15 14.872C1328.88 14.3813 1328.52 14.008 1328.06 13.752C1327.61 13.4853 1327.12 13.352 1326.57 13.352C1326.03 13.352 1325.53 13.48 1325.09 13.736C1324.64 13.992 1324.28 14.3653 1324.01 14.856C1323.75 15.3467 1323.61 15.9227 1323.61 16.584C1323.61 17.256 1323.75 17.8427 1324.01 18.344C1324.28 18.8347 1324.64 19.2133 1325.09 19.48C1325.53 19.736 1326.03 19.864 1326.57 19.864C1327.12 19.864 1327.61 19.736 1328.06 19.48C1328.52 19.2133 1328.88 18.8347 1329.15 18.344C1329.42 17.8427 1329.55 17.2613 1329.55 16.6ZM1334.23 10.808C1333.96 10.808 1333.72 10.712 1333.53 10.52C1333.34 10.328 1333.24 10.0933 1333.24 9.816C1333.24 9.53866 1333.34 9.304 1333.53 9.112C1333.72 8.92 1333.96 8.824 1334.23 8.824C1334.5 8.824 1334.72 8.92 1334.91 9.112C1335.1 9.304 1335.19 9.53866 1335.19 9.816C1335.19 10.0933 1335.1 10.328 1334.91 10.52C1334.72 10.712 1334.5 10.808 1334.23 10.808ZM1334.94 12.232V21H1333.48V12.232H1334.94ZM1341.69 12.072C1342.76 12.072 1343.62 12.3973 1344.28 13.048C1344.94 13.688 1345.28 14.616 1345.28 15.832V21H1343.84V16.04C1343.84 15.1653 1343.62 14.4987 1343.18 14.04C1342.74 13.5707 1342.14 13.336 1341.39 13.336C1340.62 13.336 1340.01 13.576 1339.55 14.056C1339.1 14.536 1338.88 15.2347 1338.88 16.152V21H1337.42V12.232H1338.88V13.48C1339.16 13.032 1339.55 12.6853 1340.04 12.44C1340.54 12.1947 1341.09 12.072 1341.69 12.072ZM1227.8 22.2682H1231.3C1231.69 22.2682 1232 22.573 1232 22.9494V24.3118C1232 24.6882 1231.69 24.993 1231.3 24.993H1225V8.6441H1220.8V5.91928H1225.7C1226.86 5.91928 1227.8 6.86402 1227.8 8.02462V22.2682ZM1209.26 5.35515L1217.66 3.23746C1218.54 3.01436 1219.4 3.68833 1219.4 4.6071V24.993H1204.7C1204.31 24.993 1204 24.6882 1204 24.3118V22.9494C1204 22.573 1204.31 22.2682 1204.7 22.2682H1208.2V6.7248C1208.2 6.0768 1208.64 5.51226 1209.26 5.35515ZM1214.5 14.0937C1214.5 14.846 1214.97 15.4561 1215.55 15.4561C1216.13 15.4561 1216.6 14.846 1216.6 14.0937C1216.6 13.3414 1216.13 12.7313 1215.55 12.7313C1214.97 12.7313 1214.5 13.3414 1214.5 14.0937Z" fill="#9C9C9C"/>
</svg>
